<?xml version="1.0" encoding="iso-8859-1"?>
<!-- Uploaded to: SVG Repo, www.svgrepo.com, Generator: SVG Repo Mixer Tools -->
<svg version="1.1" id="Layer_1" xmlns="http://www.w3.org/2000/svg" xmlns:xlink="http://www.w3.org/1999/xlink" 
	 viewBox="0 0 512 512" xml:space="preserve">
<path style="fill:#F2F2F2;" d="M466.605,6.27H45.396C23.787,6.27,6.27,23.787,6.27,45.396v421.208
	c0,21.609,17.517,39.126,39.126,39.126h421.208c21.609,0,39.126-17.517,39.126-39.126V45.396
	C505.732,23.787,488.214,6.27,466.605,6.27z"/>
<g>
	<path style="fill:#47A7DD;" d="M466.604,512H45.396C20.364,512,0,491.636,0,466.604V45.396C0,20.365,20.364,0,45.396,0h421.208
		C491.636,0,512,20.365,512,45.396v421.208C512,491.636,491.636,512,466.604,512z M45.396,12.539
		c-18.117,0-32.857,14.74-32.857,32.857v421.208c0,18.117,14.74,32.857,32.857,32.857h421.208c18.117,0,32.857-14.74,32.857-32.857
		V45.396c0-18.117-14.74-32.857-32.857-32.857H45.396z"/>
	<rect x="58.245" y="58.232" style="fill:#47A7DD;" width="395.526" height="395.539"/>
</g>
<g>
	<polygon style="fill:#6AC7EF;" points="370.938,58.236 117.21,453.77 58.24,453.77 58.24,372.48 259.82,58.236 	"/>
	<polygon style="fill:#6AC7EF;" points="453.761,58.236 453.761,108.995 232.59,453.77 174.698,453.77 428.427,58.236 	"/>
</g>
<path style="fill:#F2F2F2;" d="M263.853,108.544h-15.246h-15.941h-49.417v294.913h65.358v-84.694h15.246
	c58.051,0,105.109-47.059,105.109-105.109l0,0C368.962,155.602,321.903,108.544,263.853,108.544z M308.386,213.653
	c0,26.355-21.366,47.721-47.721,47.721h-12.059v-95.441h12.059C287.02,165.932,308.386,187.298,308.386,213.653L308.386,213.653z"/>
</svg>